{
  "accessors": [
    {
      "bufferView": 2,
      "componentType": 5126,
      "count": 29154,
      "max": [
        0.0904686376452446,
        0.09938956797122955,
        0.24678760766983032
      ],
      "min": [
        -0.0904686376452446,
        -0.06673697382211685,
        0.029987022280693054
      ],
      "type": "VEC3"
    },
    {
      "bufferView": 2,
      "byteOffset": 349848,
      "componentType": 5126,
      "count": 29154,
      "max": [
        0.9998689293861389,
        0.9998973608016968,
        0.9999483823776245
      ],
      "min": [
        -0.9999597668647766,
        -0.9999722242355347,
        -0.9999967813491821
      ],
      "type": "VEC3"
    },
    {
      "bufferView": 1,
      "componentType": 5126,
      "count": 29154,
      "max": [
        0.9998925924301147,
        0.9962595701217651
      ],
      "min": [
        6.247027340577915e-05,
        7.319450378417969e-05
      ],
      "type": "VEC2"
    },
    {
      "bufferView": 0,
      "componentType": 5125,
      "count": 149514,
      "type": "SCALAR"
    }
  ],
  "asset": {
    "extras": {
      "author": "Akiko_NAKAMURA (https://sketchfab.com/Akiko_NAKAMUR)",
      "license": "CC-BY-4.0 (http://creativecommons.org/licenses/by/4.0/)",
      "source": "https://sketchfab.com/3d-models/papa-meilland-rose-0c214b5d454f4ef5b570786024c65bd2",
      "title": "Papa Meilland Rose"
    },
    "generator": "Sketchfab-13.17.0",
    "version": "2.0"
  },
  "bufferViews": [
    {
      "buffer": 0,
      "byteLength": 598056,
      "name": "floatBufferViews",
      "target": 34963
    },
    {
      "buffer": 0,
      "byteLength": 233232,
      "byteOffset": 598056,
      "byteStride": 8,
      "name": "floatBufferViews",
      "target": 34962
    },
    {
      "buffer": 0,
      "byteLength": 699696,
      "byteOffset": 831288,
      "byteStride": 12,
      "name": "floatBufferViews",
      "target": 34962
    }
  ],
  "buffers": [
    {
      "byteLength": 1530984,
      "uri": "scene.bin"
    }
  ],
  "extensionsUsed": [
    "KHR_materials_unlit"
  ],
  "images": [
    {
      "uri": "textures/4a8ff7f6-dab1-4c48-a2a1-04cf0854b0bb_0_baseColor.jpeg"
    }
  ],
  "materials": [
    {
      "doubleSided": true,
      "extensions": {
        "KHR_materials_unlit": {}
      },
      "name": "4a8ff7f6-dab1-4c48-a2a1-04cf0854b0bb_0",
      "pbrMetallicRoughness": {
        "baseColorTexture": {
          "index": 0
        },
        "metallicFactor": 0.0
      }
    }
  ],
  "meshes": [
    {
      "name": "Object_0",
      "primitives": [
        {
          "attributes": {
            "NORMAL": 1,
            "POSITION": 0,
            "TEXCOORD_0": 2
          },
          "indices": 3,
          "material": 0,
          "mode": 4
        }
      ]
    }
  ],
  "nodes": [
    {
      "children": [
        1
      ],
      "matrix": [
        1.0,
        0.0,
        0.0,
        0.0,
        0.0,
        2.220446049250313e-16,
        -1.0,
        0.0,
        0.0,
        1.0,
        2.220446049250313e-16,
        0.0,
        0.0,
        0.0,
        0.0,
        1.0
      ],
      "name": "Sketchfab_model"
    },
    {
      "children": [
        2
      ],
      "name": "3Ddata.obj.cleaner.materialmerger.gles"
    },
    {
      "mesh": 0,
      "name": "Object_2"
    }
  ],
  "samplers": [
    {
      "magFilter": 9729,
      "minFilter": 9987,
      "wrapS": 10497,
      "wrapT": 10497
    }
  ],
  "scene": 0,
  "scenes": [
    {
      "name": "Sketchfab_Scene",
      "nodes": [
        0
      ]
    }
  ],
  "textures": [
    {
      "sampler": 0,
      "source": 0
    }
  ]
}
